<svg width="67" height="41" viewBox="0 0 67 41" fill="none" xmlns="http://www.w3.org/2000/svg">
<path d="M39.2327 40.9538C38.9813 40.8755 38.7303 40.6903 38.6103 40.4979C38.4612 40.2557 38.4482 39.9316 38.5556 39.1195C38.6726 38.2362 38.6683 37.7161 38.5394 37.2211C38.3946 36.6597 38.1734 36.1432 37.6908 35.2371C37.09 34.1091 37.0597 34.0468 36.7997 33.3878C36.571 32.809 36.348 32.3467 36.2162 32.1775L36.1492 32.092L36.0123 32.3378C35.9367 32.4728 35.7505 32.7998 35.5978 33.0644C35.1007 33.9267 34.8079 34.5529 34.6642 35.0608C34.5104 35.6058 34.4783 35.9281 34.4463 37.2495C34.4074 38.8524 34.3465 39.2905 34.0803 39.871C33.96 40.1346 33.888 40.1845 33.5307 40.2593C33.0837 40.3519 32.5247 40.1845 32.3389 39.9067L32.2517 39.7784L32.4098 39.1729C32.4966 38.8381 32.7329 37.9833 32.9346 37.2674C33.8556 34.0012 34.1783 32.4696 34.362 30.4871C34.425 29.8057 34.4535 27.752 34.4002 27.6993C34.3465 27.6458 34.1037 27.6818 33.8163 27.7855C33.2937 27.9742 33.3711 28.0234 33.114 27.3385C32.274 25.1013 31.5576 22.9888 30.9727 21.0266C30.8416 20.5867 30.7148 20.2138 30.6907 20.1977C30.6665 20.1821 30.6064 20.1774 30.557 20.1878C30.5073 20.1981 30.3168 20.2166 30.1335 20.2294C29.6418 20.2633 29.6562 20.2857 29.6573 19.4793C29.6577 19.1249 29.6818 18.4902 29.7106 18.0692C29.7636 17.2963 29.7769 16.9052 29.7499 16.9323C29.7416 16.9405 29.6937 17.1396 29.6436 17.3747C29.2496 19.2243 29.2485 21.1334 29.6411 22.2419C29.6923 22.3858 29.742 22.5286 29.7517 22.5592C29.7629 22.5948 29.7348 22.6305 29.6724 22.6582C29.5435 22.7163 29.4387 22.6486 29.2914 22.4121C29.1974 22.2611 29.0969 22.1653 29.032 22.1653C28.9834 22.1653 28.9251 22.452 28.8822 22.9036C28.8354 23.4002 28.7489 23.7681 28.6794 23.7681C28.6164 23.7681 28.4514 23.6698 28.3708 23.584C28.1773 23.3795 28.1619 23.2848 28.1619 22.3256C28.1619 21.8358 28.1489 21.4155 28.1334 21.3917C28.1035 21.3461 27.9313 21.2923 27.703 21.257C27.6288 21.2453 27.5535 21.2086 27.5351 21.1747C27.497 21.1046 27.5513 20.1354 27.7113 18.0336C27.7703 17.2596 27.8514 16.1697 27.8914 15.6116C28.1838 11.5408 28.4273 9.57216 28.763 8.56844C28.893 8.17985 29.0187 7.97362 29.1689 7.90345C29.2291 7.87531 29.5457 7.8023 29.8727 7.74103C30.936 7.54157 31.3541 7.40587 31.7741 7.12306C31.9419 7.00979 31.9679 7.00196 31.9902 7.05538C32.0043 7.08922 32.0147 8.06231 32.0136 9.21811L32.0115 11.3196L31.8951 12.2457C31.8314 12.755 31.764 13.2679 31.7456 13.3854C31.6822 13.794 31.6016 14.7051 31.6016 15.0185C31.6016 15.2629 31.612 15.3302 31.6484 15.3163C31.674 15.3067 32.4278 15.1022 33.3232 14.8622L34.9512 14.4258V14.2086C34.9509 13.8474 34.8821 12.5374 34.8263 11.836C34.7402 10.7557 34.702 9.92585 34.6808 8.68384C34.6696 8.03737 34.6509 7.43863 34.639 7.35386L34.6177 7.19928L34.7906 7.32964C35.0683 7.53908 35.3496 7.6616 36.2299 7.9551C36.6855 8.10719 37.1422 8.27067 37.2452 8.3184C37.408 8.39391 37.5352 8.52356 38.2328 9.32782C39.5709 10.8708 39.9848 11.332 40.5351 11.8937C41.1139 12.4846 41.3722 12.8326 41.4752 13.16C41.656 13.7345 41.4824 14.0714 40.5585 14.9377C40.3439 15.1389 39.9632 15.5279 39.7121 15.8025C39.2579 16.2983 38.8516 16.6545 38.5865 16.788C38.4317 16.866 38.1273 16.8821 38.0013 16.8183C37.958 16.7966 37.8367 16.6965 37.7311 16.5957C37.5456 16.4187 37.5406 16.4162 37.5651 16.5198C37.6202 16.751 37.7797 17.0911 38.0211 17.4908C38.3856 18.0941 38.4666 18.2893 38.5152 18.6786C38.6118 19.4537 38.7522 20.4335 39.0015 22.0762C39.3253 24.2094 39.5173 25.6491 39.4812 25.6726C39.4758 25.6762 39.3595 25.6986 39.2226 25.7228C38.9201 25.7759 38.7018 25.866 38.1388 26.1705C37.7765 26.3664 37.5622 26.4551 37.2701 26.5299C37.2452 26.5363 37.2683 26.619 37.3306 26.7479C37.4624 27.0204 37.5341 27.4008 37.5809 28.0779C37.6313 28.8031 37.7037 29.088 38.0286 29.8346C38.4576 30.8219 38.566 31.2775 38.6978 32.6512C38.8747 34.4956 38.9431 34.9618 39.1066 35.4369C39.2111 35.7415 39.2903 35.8982 39.586 36.3862C39.7139 36.5967 39.8807 36.9005 39.957 37.0643C40.2153 37.6093 40.3568 38.4819 40.4249 39.9352C40.4667 40.8292 40.4858 40.7508 40.1919 40.9075C40.0049 41.0073 39.4823 41.0322 39.2327 40.9538Z" fill="#CFCFCF"/>
<path d="M38.6329 14.3284C38.8382 14.1617 39.091 13.9719 39.1951 13.9064C39.4267 13.7607 39.5643 13.6043 39.5643 13.4871C39.5643 13.075 39.2524 12.7527 38.3757 12.2583C37.6074 11.8252 37.5102 11.7828 37.3794 11.8255C37.3009 11.8512 37.2328 11.9367 37.087 12.1946C36.9825 12.3794 36.864 12.6024 36.8237 12.6907C36.7833 12.7787 36.6951 12.9632 36.6274 13.1003C36.4844 13.3906 36.4649 13.5708 36.5532 13.7984C36.6227 13.9783 36.792 14.1254 37.1691 14.3327C37.288 14.3979 37.5131 14.5439 37.6697 14.6568L37.9543 14.862L38.107 14.7469C38.1909 14.6835 38.4276 14.4955 38.6329 14.3284Z" fill="#CFCFCF"/>
<path d="M53.2441 40.9181C52.7831 40.8219 52.1311 40.5513 51.8502 40.3447C51.7241 40.2521 51.6521 40.0668 51.5873 39.6822L51.544 39.4471L51.1514 39.2761C50.9209 39.18 50.694 39.0553 50.604 38.9769L50.4527 38.8416L50.4491 37.9761C50.4455 37.4988 50.4167 36.7622 50.3843 36.3412C50.233 34.3452 50.2294 33.8365 50.3482 33.0942C50.4203 32.6586 50.4311 31.8127 50.3698 31.319C50.2654 30.4988 50.2546 30.1753 50.3086 29.6984C50.4059 28.834 50.3879 28.705 50.0925 28.3271C49.88 28.0554 49.8296 27.9264 49.7828 27.5727C49.7467 27.2707 49.6675 27.0919 49.4442 26.7841C49.2821 26.5601 49.2533 26.4454 49.2065 25.8702C49.1308 24.8754 48.9003 24.1523 48.1475 22.5367C47.953 22.1267 47.7838 21.7542 47.7657 21.7089C47.7189 21.5896 47.6829 21.6334 47.5965 21.9055C47.4272 22.443 47.4056 22.8758 47.4596 24.3557C47.4956 25.3462 47.474 25.6497 47.2651 27.1339C46.9914 29.0701 46.9986 28.9715 46.995 31.693C46.995 34.5521 47.0274 35.0661 47.2867 36.1909C47.4128 36.7337 47.4128 36.7515 47.3011 36.7472C47.2507 36.7455 47.1823 36.7316 47.1498 36.7166C47.0958 36.6938 47.085 36.7088 47.085 36.8078C47.0886 36.9966 47.1426 37.196 47.3912 37.9476C47.6505 38.7205 47.7225 39.0695 47.6829 39.3794C47.6505 39.6145 47.6217 39.643 47.2687 39.7605C46.8041 39.9137 46.2962 39.846 45.9288 39.586C45.6299 39.3759 45.475 39.1301 45.4282 38.7988C45.4102 38.6528 45.3561 38.318 45.3165 38.0544C45.2337 37.5415 45.2409 37.2495 45.3345 37.107C45.4102 36.993 45.4102 36.993 45.2697 36.9681C45.1256 36.9396 45.0716 36.8862 44.9419 36.6308C44.7943 36.3383 44.7474 36.0324 44.7222 35.2727C44.7114 34.8905 44.6646 34.2173 44.6178 33.7767C44.4449 32.197 44.3296 30.4247 44.2216 27.7216C44.0919 24.4155 44.1027 24.5976 43.8798 22.7707C43.6907 21.2274 43.6644 20.8915 43.664 20.005C43.6637 19.0575 43.7062 18.6465 43.8682 18.0371C43.9406 17.7706 44.0055 17.5163 44.0163 17.4722C44.0379 17.3703 43.9118 17.2178 43.2368 16.5251C42.6087 15.8797 42.3375 15.5267 42.1116 15.0594C41.9053 14.6316 41.8372 14.383 41.7875 13.8754C41.7432 13.4217 41.7594 13.0737 41.9002 11.462C42.0364 9.90723 42.0659 9.63226 42.1545 9.09906C42.3674 7.82322 42.6901 7.44781 44.2936 6.609C44.6322 6.43269 45.0428 6.20367 45.2121 6.10002C45.5722 5.87883 46.6456 5.28223 46.6852 5.28223C46.6996 5.28223 46.7753 5.43859 46.8509 5.6295C46.9265 5.82041 47.0526 6.10144 47.1282 6.25389C47.2039 6.40633 47.3299 6.70303 47.4056 6.91282C47.5424 7.28966 47.6901 7.61628 47.7153 7.59135C47.7405 7.56784 47.9494 6.89572 47.9494 6.84265C47.9494 6.8138 47.9134 6.77035 47.8666 6.74613C47.8198 6.72191 47.7657 6.65708 47.7441 6.60223C47.7081 6.50571 47.7153 6.49538 47.953 6.31942C48.0899 6.21898 48.216 6.13706 48.2304 6.13706C48.2484 6.13706 48.3384 6.2026 48.4321 6.28238C48.5762 6.40811 48.5978 6.44658 48.5978 6.56483C48.5978 6.67988 48.5834 6.70374 48.5185 6.71336C48.4141 6.72761 48.4177 6.78317 48.5401 7.30141C48.6086 7.59028 48.6338 7.80577 48.6374 8.08501L48.641 8.47004L48.695 8.23853C48.9039 7.31566 49.0948 6.60936 49.2641 6.12566C49.3721 5.81579 49.4622 5.53084 49.4622 5.49237C49.4622 5.30716 49.6819 5.4019 50.4887 5.93368C51.083 6.32441 51.1875 6.37641 51.8214 6.60009C52.675 6.9 53.0532 7.14897 53.2225 7.52367C53.3341 7.76944 53.4746 8.36212 53.5286 8.80841C53.6835 10.0686 53.6727 13.567 53.5142 14.3445C53.4278 14.7606 53.2261 15.0996 52.4697 16.092C51.6161 17.2132 51.4072 17.5081 51.4072 17.595C51.4072 17.6884 51.4864 17.7956 51.807 18.1265C52.1347 18.4698 52.1671 18.5585 52.0411 18.7836C51.8106 19.1936 51.825 20.14 52.0735 21.4033C52.304 22.5702 52.6498 25.322 52.8839 27.8463C52.9451 28.4927 53.028 29.23 53.0712 29.4847C53.1648 30.0617 53.1504 30.5924 52.9956 32.4232C52.765 35.1106 52.765 35.9804 52.9776 37.6092L53.0028 37.7908L52.8443 37.8443C52.7614 37.8728 52.6858 37.9119 52.6786 37.9333C52.6606 37.9903 53.0568 38.5566 53.3701 38.9235C54.1049 39.7819 54.3318 40.0989 54.4651 40.4515C54.5912 40.7828 54.5876 40.8006 54.3606 40.8754C54.0977 40.9644 53.5502 40.9858 53.2441 40.9181Z" fill="#CFCFCF"/>
<path d="M48.959 16.3851C48.959 16.3797 48.9194 16.1831 48.869 15.9488C48.8186 15.714 48.7789 15.464 48.7789 15.3928C48.7789 15.3219 48.7681 15.2122 48.7573 15.1495L48.7321 15.0352L48.4908 15.2745L48.2459 15.5139L48.1378 15.3931C48.0802 15.3269 47.9865 15.22 47.9325 15.1555C47.8785 15.0907 47.8281 15.043 47.8209 15.049C47.7956 15.0743 47.5219 16.3032 47.5399 16.3192C47.5795 16.3601 47.8965 16.3862 48.4116 16.3901C48.7105 16.3926 48.959 16.3904 48.959 16.3851Z" fill="#CFCFCF"/>
<path d="M62.7273 40.9005C62.5796 40.8542 62.5184 40.7616 62.4248 40.4731C62.3851 40.3448 62.2915 40.1454 62.2123 40.0278C62.1366 39.9103 62.0538 39.7643 62.0286 39.7073C61.9529 39.5292 61.9709 38.5212 62.061 37.8551C62.1762 37.011 62.2014 36.7236 62.2843 35.4509C62.3743 33.9998 62.4104 33.5849 62.5184 32.6727C62.6589 31.5023 62.6913 30.8042 62.6697 29.6452C62.6157 27.0515 62.504 26.2632 61.8629 24.0047L61.6216 23.1548L61.5531 23.2389C61.3298 23.506 61.2037 23.9167 60.5374 26.5286C60.2745 27.5669 59.8891 29.0094 59.6802 29.7342C59.2083 31.3645 58.931 32.4027 58.3079 34.8632C58.0414 35.9211 57.7496 37.0252 57.6596 37.3209C57.5731 37.6129 57.4399 38.0867 57.3678 38.3716C57.2994 38.6565 57.2057 38.9914 57.1625 39.1196C57.004 39.604 56.7519 39.9993 56.507 40.1489C56.4133 40.2095 56.3773 40.2629 56.3449 40.3947C56.2873 40.6333 56.1972 40.8221 56.1288 40.8471C56.0027 40.8969 55.3076 40.9112 55.1239 40.8649C54.8862 40.8114 54.7817 40.6903 54.6809 40.3555C54.6413 40.2131 54.5584 39.9851 54.4972 39.8498C54.3711 39.5612 54.3603 39.3475 54.4468 39.0305C54.4792 38.913 54.5224 38.5746 54.5404 38.2826C54.5728 37.6877 54.6341 37.3814 54.987 36.0137C55.1131 35.5182 55.3328 34.5754 55.4769 33.9193C55.6174 33.2629 55.8551 32.2602 55.9991 31.6911C56.1468 31.1215 56.3233 30.3444 56.3953 29.9636C56.561 29.06 56.6691 28.6564 56.8672 28.1528C57.1337 27.4892 57.1373 27.5444 56.6727 26.1528C55.8875 23.8049 55.9019 23.8515 55.9019 23.5367C55.9019 23.3725 55.9235 23.1912 55.9523 23.1093C56.0027 22.9753 56.0027 22.9593 55.9271 22.8421C55.7254 22.523 55.7218 22.3702 55.8947 21.4502C55.9631 21.0698 56.0568 20.574 56.0964 20.3489C56.19 19.8495 56.2008 19.2073 56.1324 18.194C56.0928 17.6198 56.0928 17.1012 56.1216 15.5226C56.1432 14.4452 56.1792 13.2911 56.1972 12.9581C56.2153 12.6251 56.2477 12.016 56.2693 11.6046C56.3593 9.8408 56.4602 9.34856 56.7735 9.14198C56.8492 9.09283 57.1265 8.96496 57.3858 8.85775C58.0882 8.56995 58.045 8.61234 58.027 8.20487C58.0125 7.9071 57.9837 7.78493 57.7892 7.22359C57.5407 6.48807 57.4795 6.15718 57.5299 5.7693C57.5731 5.42274 57.656 5.21544 57.8829 4.88384C58.1026 4.56 58.2539 4.26732 58.3403 4.00008C58.4304 3.71553 58.7941 2.9767 58.9598 2.73229C59.2516 2.31068 59.6118 2.05647 60.0476 1.96675C60.1556 1.94467 60.4077 1.93373 60.6058 1.94246C61.1245 1.96504 61.3298 2.05017 61.654 2.37607C61.8989 2.62255 62.0142 2.79234 62.432 3.5494C62.5616 3.78659 62.6805 3.95199 62.8029 4.06031C63.1847 4.39797 63.2388 4.58675 63.0335 4.8329C62.947 4.93798 62.9218 5.00423 62.9218 5.11749C62.9218 5.32906 62.9758 5.40208 63.2748 5.60297C63.4225 5.70127 63.5593 5.81276 63.5809 5.85051C63.6061 5.89503 63.6098 6.13866 63.5953 6.5358C63.5737 7.20792 63.6133 7.54059 63.761 7.92847C63.8619 8.19596 63.9231 8.24796 64.2473 8.34128C64.4166 8.38901 64.5642 8.45918 64.6399 8.52543C64.8776 8.73095 65.1189 9.47714 65.3998 10.8566C65.4863 11.2876 65.6232 11.8977 65.7024 12.2123C65.778 12.5271 65.8609 12.9439 65.8861 13.1383C65.9617 13.8026 66.0302 14.0843 66.2103 14.4897C66.6389 15.4603 66.9486 16.7756 66.9918 17.82C67.0135 18.361 66.9522 18.9971 66.837 19.4406C66.7109 19.9236 66.4552 20.2855 66.1994 20.3375C66.1346 20.351 66.077 20.3984 66.041 20.4692C66.0086 20.5305 65.9149 20.6683 65.8321 20.7763C65.7456 20.8838 65.6664 21.0046 65.6556 21.0445C65.6448 21.084 65.6268 21.8373 65.616 22.7185C65.6088 23.5994 65.5835 24.7609 65.5619 25.2998C65.5439 25.8383 65.5115 27.345 65.4935 28.6479C65.4611 30.7201 65.4431 31.2035 65.3458 32.5124C65.1081 35.7633 65.0036 36.8222 64.7515 38.4713C64.5534 39.7714 64.4057 40.2416 64.132 40.4731C64.042 40.5479 63.9771 40.644 63.9627 40.7117C63.9483 40.7723 63.9123 40.8435 63.8835 40.8684C63.8151 40.9254 62.893 40.9503 62.7273 40.9005Z" fill="#CFCFCF"/>
<path d="M57.5362 23.2343C57.5362 23.0423 57.6046 22.5106 57.7198 21.8085C57.7775 21.462 57.8171 21.3255 57.8999 21.1934C58.026 20.9918 58.026 20.9893 57.9323 20.9893C57.8387 20.9893 57.8387 20.9409 57.9504 20.2057C58.0008 19.8823 58.0728 19.1532 58.1124 18.5851C58.1953 17.389 58.2673 16.7273 58.3682 16.1274C58.4654 15.5832 58.4438 15.3064 58.2709 14.7205C58.1989 14.4755 58.116 14.1752 58.0836 14.0527C58.0512 13.9302 58.0152 13.8301 58.0044 13.8301C57.99 13.8301 57.9684 14.1065 57.954 14.4445C57.9107 15.5226 57.7919 17.3801 57.6982 18.3358C57.6118 19.2568 57.5578 20.1455 57.5001 21.5058C57.4857 21.8976 57.4533 22.2901 57.4353 22.3784C57.3813 22.5939 57.3164 23.011 57.3128 23.151C57.3092 23.2308 57.3345 23.2863 57.3957 23.3369C57.4425 23.3764 57.4929 23.4096 57.5109 23.4099C57.5253 23.4106 57.5362 23.3316 57.5362 23.2343Z" fill="#CFCFCF"/>
<path d="M62.5666 20.2421L63.006 20.1962L62.9592 20.1032C62.9376 20.0519 62.6098 19.3741 62.2316 18.5966C61.7598 17.6146 61.5437 17.2014 61.5257 17.2431C61.4932 17.3207 60.8125 20.2183 60.8125 20.2824C60.8125 20.3223 60.9278 20.3269 61.4716 20.3094C61.8318 20.2977 62.3253 20.2674 62.5666 20.2421Z" fill="white"/>
<path d="M65.7064 18.2775C65.7785 17.9861 65.6344 17.4839 65.2274 16.5906C65.1265 16.3634 65.0041 15.9965 64.896 15.5769C64.806 15.2151 64.6943 14.8386 64.6583 14.7399C64.4962 14.3349 64.2729 13.6521 64.2117 13.385C64.1793 13.2283 64.118 13.0406 64.082 12.9679C64.046 12.8953 64.0136 12.8098 64.0136 12.7784C64.0136 12.7396 63.9884 12.7246 63.9343 12.7325C63.8407 12.7464 63.8155 12.8247 63.7651 13.3316C63.7435 13.5371 63.711 13.8146 63.693 13.9478C63.657 14.2146 63.6966 14.621 63.7795 14.8318C63.8083 14.9023 63.9596 15.2311 64.118 15.562C64.4098 16.1711 64.7916 17.1146 65.0797 17.9263C65.1662 18.171 65.2742 18.4481 65.3174 18.5414L65.3967 18.7117L65.5299 18.581C65.6236 18.4909 65.6776 18.3972 65.7064 18.2775Z" fill="#CFCFCF"/>
<path d="M61.4479 13.232C61.5343 12.9318 61.6388 12.5973 61.6784 12.4883C61.7144 12.3793 61.7792 12.0801 61.8224 11.823C61.8621 11.5658 61.9449 11.1872 62.0061 10.9817C62.0998 10.6511 62.1142 10.5208 62.1466 9.8597C62.1718 9.32365 62.1682 9.01555 62.1394 8.77335C62.0782 8.27933 62.0818 8.28147 61.8909 8.51476C61.682 8.77371 61.5559 8.83283 61.0805 8.89908C60.4033 8.99276 59.9819 8.8827 59.5893 8.51156L59.3984 8.32812L59.42 8.52402C59.4345 8.63159 59.4597 8.98421 59.4777 9.30762C59.4957 9.63068 59.5533 10.264 59.6037 10.7145C59.6542 11.1651 59.7046 11.6299 59.719 11.7475C59.7334 11.9134 59.7874 12.052 59.9567 12.3708C60.1728 12.7811 60.8211 13.8357 61.0625 14.1684L61.1885 14.3454L61.2354 14.0616C61.2642 13.9056 61.3578 13.5319 61.4479 13.232Z" fill="white"/>
<path d="M10.5125 40.8535C10.1666 40.7644 9.74673 40.5115 9.48236 40.2337C9.41104 40.1589 9.2522 39.9523 9.12938 39.7742C8.91471 39.4644 8.90423 39.4394 8.85838 39.1153C8.83219 38.9301 8.78328 38.7235 8.74975 38.6594C8.71618 38.5953 8.54178 38.3816 8.3622 38.1821C7.95026 37.7298 7.92339 37.6656 7.94655 37.2311C7.96114 36.9568 7.99624 36.7966 8.13326 36.3773L8.30201 35.8619L8.24101 35.5581C8.17538 35.2311 8.17863 35.0157 8.26558 33.9275C8.32005 33.2458 8.29056 32.7536 8.11872 31.4788C7.84949 29.4813 7.71049 28.6585 7.4477 27.5074C7.31404 26.9218 7.00925 25.7778 6.96466 25.6944C6.94788 25.6631 6.89706 25.7681 6.82671 25.9793C6.55676 26.7904 6.36388 27.631 6.04696 29.3773C5.76742 30.9174 5.6146 31.6722 5.44809 32.3336C5.17406 33.4221 4.15036 36.9319 3.98828 37.338C3.79954 37.8117 3.50852 38.3174 3.28052 38.5703C3.12745 38.7377 3.12132 38.7556 3.10007 39.0334C3.00643 40.2586 1.86033 41.0636 0.869476 40.6006C0.759261 40.5471 0.648685 40.483 0.623833 40.451C0.59898 40.4225 0.570886 40.28 0.561522 40.1375C0.533428 39.703 0.61771 39.4252 1.02255 38.6345C1.45837 37.7832 1.52248 37.5552 1.45945 37.0851C1.37049 36.4254 1.39066 36.2274 1.76416 34.1145C2.22664 31.4984 2.43446 30.1342 2.56773 28.8398C2.60482 28.4815 2.6412 28.3458 2.86163 27.7389C3.03524 27.2612 3.0428 26.7911 2.89765 25.5256C2.77483 24.4563 2.76186 24.0221 2.83822 23.5196C2.89585 23.1402 2.88973 23.116 2.67794 22.8948C2.40745 22.6124 2.3545 22.5016 2.35486 22.222C2.35522 22.0827 2.38872 21.8163 2.42906 21.6304C2.63472 20.6869 2.68082 20.3994 2.76727 19.5289C2.86343 18.5644 2.99922 17.5475 3.08927 17.1233C3.14726 16.8501 3.11628 16.859 3.00967 17.1457C2.90558 17.4264 2.83786 17.7754 2.73305 18.5708C2.68298 18.9508 2.62499 19.3579 2.60446 19.4755C2.56124 19.7191 2.42545 20.2413 2.40492 20.2413C2.39772 20.2413 2.31272 20.1932 2.21655 20.1348C1.95686 19.9766 1.77605 19.925 1.4454 19.9147C1.17275 19.9061 1.12088 19.9164 0.826614 20.0368C0.650126 20.1091 0.465714 20.2049 0.417089 20.2495L0.328125 20.3303L0.352257 19.8139C0.386474 19.0823 0.507855 17.7797 0.572327 17.4567C0.602222 17.306 0.674258 17.0299 0.732607 16.843C0.884243 16.3553 0.955919 15.9828 0.927105 15.8303C0.913778 15.7584 0.864794 15.5888 0.81833 15.4531C0.69875 15.1044 0.708115 15.0097 0.904774 14.5979L1.07586 14.2396V13.7944C1.07586 13.5493 1.05461 13.0927 1.02832 12.7793C0.964924 12.0163 0.995539 11.8561 1.39102 10.8677C1.73751 10.0025 1.74832 9.96688 1.99 8.87911C2.08761 8.43816 2.18413 8.03638 2.20394 7.98616C2.25653 7.85153 2.64841 7.71333 3.65115 7.47575C5.29206 7.08716 5.32004 7.07719 5.68966 6.73347C5.89334 6.54434 6.1173 6.38584 6.1812 6.38584C6.18808 6.38584 6.18696 6.53722 6.17879 6.72243C6.15952 7.15804 6.21581 7.61645 6.37789 8.34484C6.44986 8.66789 6.5081 8.97243 6.50738 9.02158C6.50471 9.19896 6.67292 10.3993 6.73696 10.66L6.80265 10.9271L6.82066 10.1781L6.83867 9.42941L7.00976 9.19219C7.10384 9.06183 7.18084 8.9393 7.18084 8.92007C7.18084 8.90083 7.12592 8.85133 7.05881 8.81036C6.83262 8.67217 6.83291 8.66896 7.11079 8.3142C7.25086 8.13505 7.38125 7.98866 7.40048 7.98866C7.47569 7.98866 7.33399 7.81199 6.92911 7.40096C6.27056 6.73241 6.20976 6.58459 6.30226 5.87971C6.37303 5.34081 6.36204 5.23751 6.18826 4.80725C6.06684 4.50642 6.03778 4.46229 5.94827 4.44284C5.68829 4.38638 5.49545 4.06269 5.4621 3.62676C5.43523 3.27535 5.47769 3.1998 5.68628 3.22805L5.84126 3.24906L5.8217 2.82902C5.77913 1.91549 6.08269 1.30425 6.74247 0.974885C7.18304 0.754943 7.61889 0.707856 8.09621 0.828566C8.47533 0.924445 8.70426 1.05304 8.98448 1.3275C9.38518 1.72001 9.50901 2.07766 9.47573 2.74624L9.45563 3.14948L9.61491 3.21697L9.77414 3.28447V3.51549C9.77414 4.05075 9.6122 4.34557 9.27421 4.42574L9.10086 4.46688L9.01884 4.81188C8.90243 5.30163 8.87819 5.97873 8.96514 6.31033L9.03008 6.55788L8.83483 6.86597C8.60701 7.225 8.23606 7.63639 7.93009 7.86933C7.81137 7.9598 7.72793 8.04351 7.74468 8.05562C7.79049 8.08874 8.10042 8.49372 8.14751 8.58205C8.18307 8.64902 8.17143 8.67965 8.06197 8.8093C7.91027 8.98881 7.90822 8.97385 8.14609 9.43119C8.18685 9.50955 8.23647 9.61355 8.25636 9.6627L8.2925 9.75175L8.29495 9.65166C8.29823 9.51703 8.47072 9.0198 8.68924 8.51509C8.90488 8.01715 9.06577 7.52491 9.12348 7.18725C9.18957 6.80008 9.19623 6.77764 9.24453 6.77764C9.26949 6.77764 9.37272 6.8706 9.474 6.98458C9.64311 7.17443 9.68273 7.199 9.95927 7.28449C10.1249 7.33578 10.3495 7.41022 10.4585 7.44975C10.5674 7.48965 10.8835 7.58795 11.1608 7.66809C11.8337 7.86328 12.2188 8.04956 12.4774 8.3053C12.7331 8.55819 12.799 8.72809 12.9225 9.45719C13.2352 11.3001 13.282 12.6518 13.157 16.2699C13.1156 17.4773 13.1343 18.4668 13.219 19.5111C13.3069 20.595 13.2896 21.4993 13.1736 21.8886C13.1448 21.9855 13.0879 21.962 13.0872 21.853C13.0864 21.7173 13.0486 21.6706 12.9053 21.6282C12.7252 21.5748 11.9457 21.52 11.7437 21.5463C11.5039 21.5777 11.4537 21.6361 11.4824 21.8501L11.5054 22.0218L11.4051 21.9798C11.1863 21.8879 11.1961 21.9581 11.2057 20.5515L11.2145 19.2618L11.1115 19.3726C10.9679 19.5271 10.9467 19.7198 11.0213 20.1914C11.0701 20.4995 11.0832 20.8336 11.0848 21.8085C11.087 23.0722 11.0558 23.4476 10.9126 23.8811C10.8847 23.9655 10.8513 24.243 10.8383 24.4976C10.8253 24.7523 10.7677 25.7539 10.7104 26.7238C10.4547 31.0442 10.4089 32.6727 10.5148 33.6693C10.545 33.9532 10.5826 34.5142 10.5982 34.9159C10.6251 35.6062 10.6322 35.6586 10.7281 35.8776C10.7838 36.0048 10.8311 36.1729 10.8331 36.2512C10.8365 36.3848 10.825 36.4008 10.6433 36.5216C10.5369 36.5918 10.4356 36.6747 10.4181 36.7057C10.3796 36.7738 10.4555 37.1884 10.566 37.516C10.6091 37.6443 10.8032 38.0752 10.9974 38.4777C11.3879 39.2863 11.475 39.5213 11.556 39.9879C11.6248 40.3833 11.6245 40.4332 11.5539 40.5756C11.432 40.8178 10.9141 40.9532 10.5125 40.8535Z" fill="#CFCFCF"/>
<path d="M11.102 18.4072C11.0183 17.5293 10.8204 16.3033 10.7434 16.1847C10.6899 16.1024 10.7301 17.0598 10.8013 17.5627C10.865 18.0137 11.0765 18.7937 11.1208 18.7417C11.1273 18.7339 11.1188 18.5835 11.102 18.4072Z" fill="#CFCFCF"/>
<path d="M8.25236 9.81604C8.24323 9.78114 8.23516 9.80108 8.23442 9.85985C8.23369 9.91862 8.24116 9.94676 8.25103 9.9229C8.26089 9.89868 8.2615 9.85059 8.25236 9.81604Z" fill="#CFCFCF"/>
<path d="M18.1113 40.412C17.9232 40.3728 17.6715 40.2802 17.5868 40.2232C17.5036 40.1627 17.4881 40.1164 17.4485 39.8065C17.3934 39.3791 17.4262 39.2045 17.6232 38.8804C17.8184 38.5598 17.8264 38.4672 17.7014 37.9615C17.6434 37.7264 17.5771 37.356 17.5544 37.1423C17.5033 36.6582 17.45 36.4488 17.2425 35.9195C16.9601 35.1979 16.94 35.075 16.9029 33.8298C16.8848 33.2225 16.8575 32.6615 16.8416 32.5831L16.8132 32.4407L14.7699 32.4314L12.7266 32.4221V28.5579V24.6937H13.9649H15.2032L15.246 24.5908C15.2698 24.5342 15.4002 24.3001 15.5356 24.0708C15.8436 23.55 15.916 23.3075 15.8789 22.9235C15.8425 22.5463 15.8425 22.5855 15.8749 20.0278C15.8954 18.4075 15.8911 17.5085 15.8601 16.8578C15.7924 15.4327 15.7744 13.4769 15.822 12.6548C15.8706 11.81 15.9012 11.4808 16.0233 10.4949C16.2077 9.00503 16.3467 8.5737 16.7689 8.1794C17.0325 7.93293 17.3113 7.78903 18.1682 7.45636C18.9155 7.16643 19.2447 6.99831 19.4753 6.78816L19.601 6.67383L19.6755 6.82592C19.7166 6.90962 19.8733 7.16144 20.0242 7.38548C20.3426 7.8592 20.6685 8.50638 20.9556 9.23548C21.4418 10.4693 21.5636 10.7663 21.5784 10.7517C21.587 10.7432 21.5823 10.304 21.5679 9.77581L21.5413 8.81554L21.3752 8.68981C21.2837 8.62107 21.1724 8.52633 21.1285 8.48002L21.0482 8.39525L21.3464 8.10212L21.6443 7.80862L21.8049 7.86454C22.1402 7.98137 22.3704 8.32223 22.2721 8.5566C22.2375 8.63959 22.2742 8.79489 22.5379 9.6832C22.9312 11.0082 23.0367 11.5225 23.2096 12.9576C23.2878 13.604 23.3919 14.3734 23.4416 14.6672C23.5993 15.6044 23.7121 16.4004 23.7121 16.5806C23.7121 16.742 23.7185 16.7548 23.7931 16.7445C23.872 16.7334 23.8745 16.7199 23.8846 16.2522C23.8903 15.9876 23.8695 15.2984 23.8378 14.7207C23.8061 14.1426 23.7657 13.1969 23.7484 12.6188L23.7167 11.5678L23.5367 10.8736C23.1322 9.31277 22.8476 8.48821 22.5418 7.98992C22.4323 7.81076 22.3401 7.61237 22.325 7.52225L22.2984 7.36553L22.4968 7.55075C22.651 7.69464 22.835 7.80292 23.3205 8.03658C24.2765 8.49641 24.4256 8.62784 24.5452 9.1183C24.6111 9.38864 24.592 10.22 24.5019 10.9986C24.369 12.1465 24.3986 13.12 24.5963 14.1027C24.7198 14.7164 24.8063 14.9337 25.3721 16.0563C25.9668 17.236 26.0233 17.4091 26.0273 18.0688C26.0327 18.8823 25.795 19.4027 25.2479 19.7749C25.1218 19.8607 25.0843 19.9106 25.0656 20.0178C24.9907 20.4445 24.7361 20.8826 24.5624 20.8826C24.5181 20.8826 24.4353 20.8345 24.3784 20.7757C24.2476 20.6407 24.1965 20.6411 24.1248 20.7782C24.0283 20.9627 24.0215 21.3178 24.1047 21.8087C24.2012 22.3793 24.1994 22.5271 24.0928 22.8665C23.9379 23.3584 23.9174 23.6672 23.9084 25.6376C23.895 28.5476 23.8396 29.5314 23.6206 30.7488C23.4239 31.8423 23.4293 32.2462 23.658 33.5983C23.8669 34.8349 23.8968 35.1263 23.8972 35.9312C23.8976 37.2776 23.9725 37.7015 24.2667 38.0042C24.3978 38.1431 24.4526 38.168 24.7566 38.2464C25.2288 38.3711 25.571 38.5385 25.7856 38.7522C25.9913 38.9552 26.1483 39.2223 26.1137 39.3114C26.0802 39.3969 25.7597 39.5322 25.4319 39.5963C24.4292 39.7994 23.0709 39.6248 22.6665 39.2437C22.5782 39.1582 22.571 39.1582 22.3999 39.2081C22.1521 39.2829 21.7415 39.2758 21.2942 39.1867C21.0835 39.144 20.8944 39.1012 20.8738 39.087C20.8493 39.0728 20.8472 39.0086 20.8674 38.9018C20.9358 38.542 20.9823 37.6587 20.9592 37.1601C20.9243 36.405 20.8515 35.7945 20.6325 34.4175C20.5248 33.7414 20.4243 33.0843 20.4085 32.9571L20.3804 32.7256H20.0382H19.6961L19.7069 32.8503C19.713 32.9187 19.7739 33.2873 19.8419 33.6695C20.1927 35.6349 20.2486 36.4416 20.0879 37.2313C20.0321 37.5056 19.883 37.8653 19.7454 38.0576C19.6694 38.1609 19.6687 38.1716 19.7267 38.3497C19.8041 38.5955 19.8009 38.8377 19.7133 39.3114C19.6741 39.5251 19.642 39.7673 19.642 39.8528C19.642 39.9774 19.6226 40.0202 19.5152 40.1128C19.3449 40.2588 19.2195 40.3194 18.9505 40.3835C18.7398 40.4334 18.2777 40.4476 18.1113 40.412Z" fill="#CFCFCF"/>
<path d="M16.6073 24.5603C16.6167 24.2961 16.6109 24.2665 16.5522 24.2665C16.5162 24.2665 16.4539 24.2437 16.4136 24.2156C16.3657 24.1824 16.3221 24.176 16.2886 24.1974C16.1946 24.2562 16.0808 24.2323 16.0058 24.1376C15.9234 24.0343 15.8225 24.0435 15.8225 24.155C15.8225 24.1928 15.7822 24.3096 15.7328 24.4143C15.6511 24.5874 15.6154 24.7979 15.6601 24.8417C15.6698 24.8513 15.8845 24.8581 16.1373 24.8567L16.5969 24.8542L16.6073 24.5603Z" fill="#CFCFCF"/>
<path d="M11.3778 24.7042C11.2462 24.6725 11.1797 24.5831 11.1797 24.4378C11.1797 24.2636 11.2738 24.1649 11.5803 24.0182C11.9599 23.8362 12.0809 23.6745 12.0795 23.3507C12.0784 23.1662 12.0067 22.9842 11.8072 22.6594L11.6793 22.4514L11.7737 22.3292C11.8256 22.2619 11.889 22.1992 11.9145 22.1892C11.9682 22.1689 12.6684 22.2198 12.8013 22.254C12.9389 22.2889 13.1608 22.835 13.1608 23.1377C13.1608 23.9192 12.6731 24.5176 11.9048 24.6786C11.6646 24.7288 11.5112 24.7363 11.3778 24.7042Z" fill="#CFCFCF"/>
<path d="M1.12389 23.5403C0.819174 23.4328 0.406767 23.1247 0.2717 22.9035C0.233161 22.8405 0.150319 22.5765 0.0872878 22.3172C-0.044178 21.7737 -0.0369747 21.7035 0.176612 21.4154C0.249729 21.3167 0.329689 21.1685 0.354181 21.0863C0.393081 20.9552 0.424416 20.9235 0.608468 20.8298C0.802966 20.7308 0.846188 20.723 1.19916 20.7237C1.52513 20.724 1.60185 20.7358 1.73475 20.8052C1.92241 20.9035 1.94438 20.9506 1.86946 21.0937C1.83776 21.1543 1.78662 21.368 1.75528 21.5689C1.66956 22.1235 1.58168 22.3917 1.45093 22.5007C1.39006 22.5512 1.32667 22.5929 1.31046 22.5929C1.27552 22.5929 1.16567 22.2902 1.16567 22.1943C1.16567 22.158 1.21249 22.1007 1.27012 22.0661C1.36413 22.0091 1.36953 21.9967 1.32415 21.935C1.29641 21.8976 1.27372 21.7979 1.27372 21.7135C1.27372 21.6291 1.25967 21.56 1.24239 21.56C1.18188 21.56 1.01943 21.7103 0.962526 21.8189C0.85195 22.0301 0.91102 22.2602 1.23986 22.9021C1.41239 23.239 1.52621 23.5019 1.5136 23.5343C1.48695 23.603 1.30866 23.6055 1.12389 23.5403Z" fill="#CFCFCF"/>
<path d="M33.1465 7.94972C32.209 6.85375 32.1722 6.80638 32.1985 6.72838C32.2742 6.50434 32.2587 6.37077 32.137 6.19019C31.9785 5.95582 31.9014 5.95618 31.7829 6.19161C31.7332 6.28992 31.673 6.4242 31.6489 6.49045C31.6071 6.6055 31.6014 6.60835 31.5228 6.55777C31.4778 6.52856 31.3903 6.42634 31.3287 6.33017C31.2034 6.13427 31.0651 5.97791 30.9977 5.95582C30.9631 5.94443 30.9696 5.81905 31.0272 5.39199C31.3186 3.23268 31.9331 2.13368 33.041 1.79064C33.5514 1.63275 34.3477 1.66733 34.7609 1.86548C35.4866 2.21329 35.854 3.32514 35.7456 4.84383C35.6937 5.56937 35.6152 6.06196 35.5378 6.14923C35.5028 6.18841 35.2478 6.36828 34.9705 6.54922L34.4662 6.87869L34.0448 7.56754C33.8132 7.94652 33.6014 8.28667 33.5737 8.32371C33.5272 8.38569 33.497 8.35933 33.1465 7.94972Z" fill="#CFCFCF"/>
<path d="M21.3156 7.52229C21.1571 7.40368 20.8816 7.20992 20.7033 7.09202C20.3302 6.84483 19.9552 6.5492 19.8083 6.38607C19.7524 6.3241 19.6779 6.19053 19.6426 6.08937C19.6069 5.98821 19.4881 5.72927 19.3782 5.51378C19.1329 5.03294 19.1005 4.91825 19.1016 4.53421C19.1023 4.18601 19.1614 4.01323 19.4441 3.53128C19.9314 2.70141 20.301 2.28511 20.7386 2.0735C20.968 1.96238 21.0177 1.9519 21.3149 1.95215C21.5843 1.95233 21.6783 1.96836 21.866 2.04636C22.3947 2.26616 22.8482 2.64254 23.1684 3.12737C23.4036 3.48377 23.5001 3.74324 23.5217 4.07538C23.539 4.3397 23.534 4.35994 23.3337 4.85912C23.0456 5.57612 22.6818 6.21866 22.2643 6.74759C22.1855 6.84768 22.162 6.91535 22.162 7.04287C22.162 7.13619 22.1314 7.26726 22.0925 7.34313C22.0097 7.50341 21.755 7.74027 21.6664 7.73884C21.6319 7.73849 21.4741 7.6409 21.3156 7.52229Z" fill="#CFCFCF"/>
<path d="M47.8385 5.78799C47.1145 5.19815 47.0605 5.1433 46.9417 4.85444C46.8732 4.68611 46.8372 4.55294 46.848 4.48601C46.8732 4.33858 46.812 3.67933 46.7219 3.07222C46.5707 2.05002 46.6283 1.34788 46.9128 0.825073C47.1902 0.305583 47.8133 -0.00254843 48.5805 1.58803e-05C49.1568 0.0019035 49.589 0.175293 49.8591 0.514271C50.0788 0.78999 50.1257 0.992265 50.1004 1.61173C50.0788 2.19726 50.0284 2.43722 49.6862 3.6259C49.5674 4.03729 49.4413 4.51814 49.4053 4.69445L49.3405 5.01508L49.0163 5.37589C48.7426 5.67793 48.2779 6.10606 48.2347 6.09965C48.2275 6.09858 48.051 5.95824 47.8385 5.78799Z" fill="#CFCFCF"/>
</svg>
