<svg width="67" height="41" viewBox="0 0 67 41" fill="none" xmlns="http://www.w3.org/2000/svg">
<path d="M39.2327 40.9538C38.9813 40.8755 38.7303 40.6903 38.6103 40.4979C38.4612 40.2557 38.4482 39.9316 38.5556 39.1195C38.6726 38.2362 38.6683 37.7161 38.5394 37.2211C38.3946 36.6597 38.1734 36.143
<path d="M38.6329 14.3284C38.8382 14.1617 39.091 13.9719 39.1951 13.9064C39.4267 13.7607 39.5643 13.6043 39.5643 13.4871C39.5643 13.075 39.2524 12.7527 38.3757 12.2583C37.6074 11.8252 37.5102 11.7828 
<path d="M53.2441 40.9181C52.7831 40.8219 52.1311 40.5513 51.8502 40.3447C51.7241 40.2521 51.6521 40.0668 51.5873 39.6822L51.544 39.4471L51.1514 39.2761C50.9209 39.18 50.694 39.0553 50.604 38.9769L50.
<path d="M48.959 16.3851C48.959 16.3797 48.9194 16.1831 48.869 15.9488C48.8186 15.714 48.7789 15.464 48.7789 15.3928C48.7789 15.3219 48.7681 15.2122 48.7573 15.1495L48.7321 15.0352L48.4908 15.2745L48.
<path d="M62.7273 40.9005C62.5796 40.8542 62.5184 40.7616 62.4248 40.4731C62.3851 40.3448 62.2915 40.1454 62.2123 40.0278C62.1366 39.9103 62.0538 39.7643 62.0286 39.7073C61.9529 39.5292 61.9709 38.521
<path d="M57.5362 23.2343C57.5362 23.0423 57.6046 22.5106 57.7198 21.8085C57.7775 21.462 57.8171 21.3255 57.8999 21.1934C58.026 20.9918 58.026 20.9893 57.9323 20.9893C57.8387 20.9893 57.8387 20.9409 5
<path d="M62.5666 20.2421L63.006 20.1962L62.9592 20.1032C62.9376 20.0519 62.6098 19.3741 62.2316 18.5966C61.7598 17.6146 61.5437 17.2014 61.5257 17.2431C61.4932 17.3207 60.8125 20.2183 60.8125 20.2824
<path d="M65.7064 18.2775C65.7785 17.9861 65.6344 17.4839 65.2274 16.5906C65.1265 16.3634 65.0041 15.9965 64.896 15.5769C64.806 15.2151 64.6943 14.8386 64.6583 14.7399C64.4962 14.3349 64.2729 13.6521 
<path d="M61.4479 13.232C61.5343 12.9318 61.6388 12.5973 61.6784 12.4883C61.7144 12.3793 61.7792 12.0801 61.8224 11.823C61.8621 11.5658 61.9449 11.1872 62.0061 10.9817C62.0998 10.6511 62.1142 10.5208 
<path d="M10.5125 40.8535C10.1666 40.7644 9.74673 40.5115 9.48236 40.2337C9.41104 40.1589 9.2522 39.9523 9.12938 39.7742C8.91471 39.4644 8.90423 39.4394 8.85838 39.1153C8.83219 38.9301 8.78328 38.7235
<path d="M11.102 18.4072C11.0183 17.5293 10.8204 16.3033 10.7434 16.1847C10.6899 16.1024 10.7301 17.0598 10.8013 17.5627C10.865 18.0137 11.0765 18.7937 11.1208 18.7417C11.1273 18.7339 11.1188 18.5835 
<path d="M8.25236 9.81604C8.24323 9.78114 8.23516 9.80108 8.23442 9.85985C8.23369 9.91862 8.24116 9.94676 8.25103 9.9229C8.26089 9.89868 8.2615 9.85059 8.25236 9.81604Z" fill="#CFCFCF"/>
<path d="M18.1113 40.412C17.9232 40.3728 17.6715 40.2802 17.5868 40.2232C17.5036 40.1627 17.4881 40.1164 17.4485 39.8065C17.3934 39.3791 17.4262 39.2045 17.6232 38.8804C17.8184 38.5598 17.8264 38.4672
<path d="M16.6073 24.5603C16.6167 24.2961 16.6109 24.2665 16.5522 24.2665C16.5162 24.2665 16.4539 24.2437 16.4136 24.2156C16.3657 24.1824 16.3221 24.176 16.2886 24.1974C16.1946 24.2562 16.0808 24.2323
<path d="M11.3778 24.7042C11.2462 24.6725 11.1797 24.5831 11.1797 24.4378C11.1797 24.2636 11.2738 24.1649 11.5803 24.0182C11.9599 23.8362 12.0809 23.6745 12.0795 23.3507C12.0784 23.1662 12.0067 22.984
<path d="M1.12389 23.5403C0.819174 23.4328 0.406767 23.1247 0.2717 22.9035C0.233161 22.8405 0.150319 22.5765 0.0872878 22.3172C-0.044178 21.7737 -0.0369747 21.7035 0.176612 21.4154C0.249729 21.3167 0.
<path d="M33.1465 7.94972C32.209 6.85375 32.1722 6.80638 32.1985 6.72838C32.2742 6.50434 32.2587 6.37077 32.137 6.19019C31.9785 5.95582 31.9014 5.95618 31.7829 6.19161C31.7332 6.28992 31.673 6.4242 31
<path d="M21.3156 7.52229C21.1571 7.40368 20.8816 7.20992 20.7033 7.09202C20.3302 6.84483 19.9552 6.5492 19.8083 6.38607C19.7524 6.3241 19.6779 6.19053 19.6426 6.08937C19.6069 5.98821 19.4881 5.72927 
<path d="M47.8385 5.78799C47.1145 5.19815 47.0605 5.1433 46.9417 4.85444C46.8732 4.68611 46.8372 4.55294 46.848 4.48601C46.8732 4.33858 46.812 3.67933 46.7219 3.07222C46.5707 2.05002 46.6283 1.34788 4
</svg>
