<svg width="48" height="40" viewBox="0 0 48 40" fill="none" xmlns="http://www.w3.org/2000/svg">
<path d="M25.8108 31.8929C26.6207 31.8929 27.3883 31.6583 28.0383 31.2455L32.9116 32.8695C33.9164 33.2044 34.9947 33.0697 35.8696 32.5456C36.4933 32.9268 37.1315 33.3652 37.5081 33.7419C38.6804 34.9142 39.5556 36.5389 40.0701 37.6927C40.5712 38.8163 41.6402 39.4328 42.6994 39.4723C43.7917 39.5126 44.9882 38.9301 45.5162 37.6813C46.275 35.8867 47.5 32.4083 47.5 28.5C47.5 24.8848 46.455 22.4718 45.5368 21.0601L46.6949 19.6446C47.2012 19.0257 47.6237 18.0583 47.4005 16.9316C47.1347 15.59 46.2166 13.1703 43.2421 10.1958C40.6477 7.60138 38.047 6.14063 36.5415 5.43341L36.4905 5.40987C36.4325 4.00209 35.6566 2.61174 34.144 1.96567C32.2587 1.16047 28.6845 0 23.75 0C18.8155 0 15.2414 1.16045 13.356 1.96567C11.8432 2.61179 11.0673 4.00233 11.0094 5.41023L10.9591 5.43341C9.45359 6.14063 6.85309 7.60138 4.25871 10.1958C1.28421 13.1703 0.365916 15.59 0.100083 16.9316C-0.123144 18.0583 0.299488 19.0257 0.805743 19.6446L1.96353 21.0598C1.04538 22.4713 0 24.8843 0 28.5C0 32.4083 1.22503 35.8867 1.98386 37.6813C2.51194 38.9301 3.70847 39.5126 4.80075 39.4723C5.86003 39.4328 6.92892 38.8163 7.42997 37.6927C7.94445 36.5389 8.81968 34.9142 9.99189 33.7419C10.3687 33.3652 11.0071 32.9265 11.6309 32.5453C12.5058 33.0697 13.5842 33.2044 14.5892 32.8695L19.4619 31.2455C20.112 31.6585 20.8796 31.8929 21.6895 31.8929H25.8108ZM15.9227 6.05511C17.5009 5.47017 20.1702 4.75 23.75 4.75C27.3296 4.75 29.9991 5.47017 31.5773 6.05511L26.1632 24.4378L25.4351 26.6226C25.3776 26.795 25.3339 26.9688 25.3037 27.1429H22.197C22.1668 26.9688 22.1231 26.795 22.0657 26.6226L21.333 24.4243L15.9227 6.05511ZM33.6369 28.1046L30.357 27.0114L30.6962 25.8602L35.8402 10.4279C36.9776 11.0912 38.4289 12.1003 39.8831 13.5545C41.5414 15.2126 42.2448 16.4894 42.5408 17.2209L33.6369 28.1046ZM13.8637 28.1046L4.96 17.2209C5.25597 16.4894 5.95935 15.2126 7.61746 13.5545C9.07172 12.1003 10.523 11.0912 11.6605 10.4279L16.8001 25.8467L17.1432 27.0116L13.8637 28.1046ZM8.23282 29.0878C7.67194 29.474 7.09978 29.9165 6.63311 30.3831C6.08715 30.9291 5.59954 31.5189 5.1685 32.1131C4.92155 30.9978 4.75 29.7663 4.75 28.5C4.75 27.2576 4.91582 26.2601 5.13962 25.479L8.23282 29.0878ZM39.2673 29.0878L42.3605 25.479C42.5842 26.2601 42.75 27.2576 42.75 28.5C42.75 29.7663 42.5785 30.9978 42.3315 32.1131C41.9005 31.5189 41.4129 30.9291 40.8671 30.3831C40.4004 29.9165 39.8283 29.474 39.2673 29.0878Z" fill="#CFCFCF"/>
</svg>
