<svg width="43" height="43" viewBox="0 0 43 43" fill="none" xmlns="http://www.w3.org/2000/svg">
<path d="M8.88034 1.33697C10.9367 3.15148 11.2856 6.22796 9.68774 8.4568L14.8521 14.5186C16.4551 13.4122 18.3573 12.8209 20.305 12.8236C23.0411 12.8236 25.5143 13.9671 27.2649 15.8031L33.0364 11.2654C31.6726 9.60788 31.7494 7.19612 33.2159 5.62876C34.6824 4.06139 37.0839 3.82444 38.8285 5.07496C40.5731 6.32549 41.1198 8.67572 40.1063 10.5678C39.0928 12.4599 36.8333 13.3071 34.8255 12.5478L28.4962 17.3977C29.4025 18.8639 29.9241 20.591 29.9241 22.442C29.9241 24.3123 29.3897 26.0585 28.4662 27.5334L33.6819 31.432C35.6545 29.5156 38.7596 29.4092 40.8587 31.1861C42.9579 32.9631 43.3654 36.043 41.8006 38.3047C40.2358 40.5663 37.2098 41.271 34.8067 39.9334C32.4036 38.5958 31.4083 35.6528 32.5062 33.1313L27.2478 29.098C25.4358 30.9929 22.927 32.0634 20.305 32.0604C18.1645 32.0643 16.0844 31.3509 14.3968 30.0342L8.02899 36.4294C9.05929 38.3197 8.52298 40.6813 6.77722 41.9413C5.03145 43.2013 2.62102 42.9666 1.15121 41.3934C-0.318609 39.8202 -0.389135 37.3996 0.986596 35.7435C2.36233 34.0875 4.755 33.7128 6.57116 34.869L12.8513 28.5209C11.4481 26.806 10.6828 24.6577 10.686 22.442C10.686 19.9626 11.6244 17.7012 13.1656 15.9977L8.11235 9.91453C5.76638 11.3349 2.72594 10.749 1.07593 8.55851C-0.574088 6.36802 -0.297976 3.28416 1.71493 1.42159C3.72783 -0.440977 6.824 -0.477544 8.88034 1.33697ZM21.3233 17.807C20.6147 18.651 20.5562 19.8188 21.0325 20.7554C20.9962 20.7845 20.9616 20.8156 20.9286 20.8484L16.4091 25.368C15.9119 25.8652 15.9044 26.6712 16.3924 27.1592C16.8803 27.6471 17.6864 27.6396 18.1835 27.1425L22.7031 22.6229C22.7359 22.5899 22.767 22.5553 22.7961 22.519C23.7327 22.9953 24.9005 22.9368 25.7445 22.2282C26.6496 21.4683 26.9287 20.2572 26.5624 19.2509C26.5571 19.2363 25.6292 20.1403 25.6292 20.1403C25.1682 20.6013 24.4723 20.8035 23.8811 20.5542C22.7687 20.0852 22.605 18.7284 23.3741 17.9593L24.3224 17.011L24.3325 17.0009C24.2213 16.9588 24.1074 16.9245 23.9914 16.8982C23.0551 16.6854 22.0067 16.9929 21.3233 17.807Z" fill="#CFCFCF"/>
</svg>
