<svg width="39" height="57" viewBox="0 0 39 57" fill="none" xmlns="http://www.w3.org/2000/svg">
<path d="M34.0501 6.72605H25.8948C24.4212 6.7308 24.4763 8.95381 25.8948 8.94075H34.0501V10.0772H25.8948C24.4294 10.0641 24.4834 12.286 25.8948 12.2919H34.0501V13.4533H25.8948C24.4294 13.4533 24.4834 15.6739 25.8948 15.668H34.0501V16.7747H25.8948C24.4599 16.7854 24.4834 19.0084 25.8948 19.0156H34.0501V20.1247H25.8948C24.4599 20.12 24.454 22.3394 25.8948 22.3394H34.0501V23.4462H25.8948C24.4599 23.4509 24.454 25.6727 25.8948 25.6621H34.0501V26.7961H25.8948C24.4599 26.7831 24.454 29.0025 25.8948 29.0108H34.0501V30.1152H25.8948C24.4599 30.114 24.4834 32.3382 25.8948 32.3311H34.0501V53.8951C34.0547 57.1809 38.9859 57.1215 39 53.8951V3.4319C38.9859 1.93089 37.7681 0.0332502 35.7642 0.0273127H25.8948C24.4212 0.0285002 24.4763 2.25152 25.8948 2.24202L34.0501 2.26933V3.37371H25.8948C24.4235 3.36659 24.4787 5.58841 25.8948 5.5896H34.0501V6.72605ZM25.334 44.9567C25.3293 41.121 21.4013 36.9956 16.7083 39.6675V24.997L13.6731 0.801568C13.6097 0.161501 13.0735 0.0106876 12.7133 0C12.3414 0.0106876 11.5964 0.161501 11.5154 0.801568L8.4955 24.997V39.6675C3.8025 36.9956 0.00117325 41.1472 0 44.927C0.00117325 48.29 2.55886 51.0522 6.01995 51.0439C9.50684 51.0522 12.0153 47.9563 12.0153 44.927V29.6877H13.1885V44.927C13.1885 48.3185 15.7837 50.8289 18.6676 50.988C18.6195 52.8477 19.219 55.5006 20.3477 56.5527C21.6711 57.7877 23.2468 56.2083 22.6003 54.9223C21.9761 53.7252 21.3637 53.0163 21.8612 50.4026C23.9402 49.4288 25.3293 47.3792 25.334 44.9567ZM6.1537 47.9741C4.51584 47.9635 3.19241 46.6192 3.19007 44.9567C3.19241 43.2954 4.51584 41.9452 6.1537 41.9357C7.77982 41.9452 9.10442 43.2954 9.11615 44.9567C9.10442 46.6204 7.77982 47.9646 6.1537 47.9741ZM16.2096 44.9567C16.2202 43.2954 17.5424 41.9452 19.1732 41.9357C20.8064 41.9452 22.131 43.2954 22.1357 44.9567C22.131 46.6192 20.8076 47.9635 19.1732 47.9741C17.5424 47.9646 16.219 46.6204 16.2096 44.9567Z" fill="#CFCFCF"/>
</svg>
