<svg width="43" height="36" viewBox="0 0 43 36" fill="none" xmlns="http://www.w3.org/2000/svg">
<path d="M32.4038 17.5423C33.5983 18.7202 35.2069 19.4794 36.9914 19.5819L37.4062 19.5938V33.8438C37.4062 34.8275 36.6088 35.625 35.625 35.625H7.125C6.14124 35.625 5.34375 34.8275 5.34375 33.8438V19.5938C7.34969 19.5938 9.20075 18.9306 10.6872 17.8129C12.1757 18.9311 14.0261 19.5938 16.0312 19.5938C18.0372 19.5938 19.8883 18.9306 21.3747 17.8129C22.8632 18.9311 24.7136 19.5938 26.7188 19.5938C28.8813 19.5938 30.8639 18.823 32.4038 17.5423ZM37.4062 0L42.75 12.4688C42.75 15.42 40.3575 17.8125 37.4062 17.8125C34.5604 17.8125 32.2341 15.5879 32.0716 12.7827L32.0625 12.4688C32.0625 15.42 29.67 17.8125 26.7188 17.8125C23.8729 17.8125 21.5466 15.5879 21.3841 12.7827L21.375 12.4688C21.375 15.42 18.9825 17.8125 16.0312 17.8125C13.1854 17.8125 10.8591 15.5879 10.6966 12.7827L10.6875 12.4688C10.6875 15.42 8.29502 17.8125 5.34375 17.8125C2.49788 17.8125 0.171604 15.5879 0.00907137 12.7827L0 12.4688L5.34375 0H37.4062Z" fill="#CFCFCF"/>
</svg>
